<svg xmlns="http://www.w3.org/2000/svg" width="800" height="600" viewBox="0 0 800 600">
  <defs>
    <radialGradient id="glow" cx="50%" cy="50%" r="50%">
      <stop offset="0%" stop-color="#ffffff" stop-opacity="1"/>
      <stop offset="100%" stop-color="#ffffff" stop-opacity="0"/>
    </radialGradient>
  </defs>
  
  <!-- Dense Background Dust (subtle) -->
  <g fill="#ffffff" fill-opacity="0.3">
      <rect width="800" height="600" fill="none"/>
      <circle cx="10" cy="60" r="0.8"/> <circle cx="40" cy="90" r="0.8"/> <circle cx="80" cy="30" r="0.8"/>
      <circle cx="120" cy="110" r="0.8"/> <circle cx="160" cy="50" r="0.8"/> <circle cx="190" cy="90" r="0.8"/>
      <circle cx="20" cy="200" r="0.8"/> <circle cx="60" cy="240" r="0.8"/> <circle cx="100" cy="180" r="0.8"/>
      <circle cx="500" cy="280" r="0.8"/> <circle cx="540" cy="320" r="0.8"/> <circle cx="580" cy="260" r="0.8"/>
      <circle cx="700" cy="70" r="0.8"/> <circle cx="740" cy="110" r="0.8"/> <circle cx="780" cy="50" r="0.8"/>
  </g>

  <!-- Bright Stars (High Opacity) -->
  <g fill="#ffffff" fill-opacity="0.9">
    <circle cx="50" cy="50" r="1.5"/>
    <circle cx="150" cy="80" r="2"/>
    <circle cx="250" cy="30" r="1.5"/>
    <circle cx="550" cy="120" r="1.5"/>
    <circle cx="650" cy="60" r="2.2"/>
    <circle cx="30" cy="150" r="1.5"/>
    <circle cx="720" cy="180" r="2"/>
    <circle cx="120" cy="250" r="1.5"/>
    <circle cx="600" cy="280" r="1.2"/>
    <circle cx="700" cy="350" r="2.2"/>
    <circle cx="400" cy="420" r="1.5"/>
    <circle cx="500" cy="480" r="2"/>
    <circle cx="200" cy="520" r="1.5"/>
    <circle cx="780" cy="580" r="1.5"/>
    <circle cx="20" cy="300" r="1.2"/>
    <circle cx="790" cy="400" r="1.8"/>
    <circle cx="480" cy="200" r="2.5"/>
    <circle cx="620" cy="50" r="1.8"/>
    <circle cx="100" cy="100" r="2"/>
    <circle cx="300" cy="200" r="2.5"/>
    <circle cx="500" cy="150" r="2.2"/>
    <circle cx="700" cy="250" r="2"/>
    <circle cx="200" cy="350" r="2.8"/>
    <circle cx="400" cy="300" r="2.2"/>
    <circle cx="600" cy="450" r="2.5"/>
    <circle cx="50" cy="400" r="2.5"/>
    <circle cx="750" cy="550" r="2.2"/>
    <circle cx="550" cy="350" r="2.5"/>
  </g>

  <!-- Glowing Major Stars (Full White) -->
  <g fill="url(#glow)">
    <circle cx="580" cy="180" r="4.5"/>
    <circle cx="220" cy="420" r="5.5"/>
    <circle cx="80" cy="280" r="3.5"/>
    <circle cx="740" cy="80" r="5"/>
    <circle cx="380" cy="520" r="4"/>
    <circle cx="150" cy="300" r="3"/>
    <circle cx="650" cy="350" r="4"/>
  </g>
</svg>
